<?xml version="1.0" encoding="UTF-8"?>
<svg width="171px" height="146px" viewBox="0 0 171 146" version="1.1" xmlns="http://www.w3.org/2000/svg" xmlns:xlink="http://www.w3.org/1999/xlink">
    <g id="Page-1" stroke="none" stroke-width="1" fill="none" fill-rule="evenodd">
        <g id="splash_icon" transform="translate(-11.000000, -23.000000)" fill-rule="nonzero">
            <g id="main-logo-vector" transform="translate(11.000000, 23.000000)">
                <path d="M116.718354,100.341368 C116.718354,100.341368 115.05344,128.168752 84.4986953,128.168752 C53.9439507,128.168752 52.2807761,100.341368 52.2807761,100.341368 L52.2807761,99.0744731 C52.2807761,97.8388591 53.3289587,96.8673987 54.5537235,96.9829661 C60.7514844,97.5738364 72.191899,99.1483319 84.4986953,99.1483319 C96.808101,99.1483319 108.245906,97.5738364 114.446277,96.9829661 C115.670171,96.8665298 116.719224,97.8388591 116.719224,99.0744731 L116.719224,100.341368 L116.718354,100.341368 Z M62.3346319,71.0741734 C66.9666427,71.0741734 70.7235732,74.8644325 70.7235732,79.5366523 C70.7235732,84.2114789 66.9666427,87.9991311 62.3346319,87.9991311 C57.7026209,87.9991311 53.9448206,84.2114789 53.9448206,79.5357834 C53.9448206,74.8644325 57.7026209,71.0741734 62.3346319,71.0741734 Z M106.664498,71.0741734 C111.299119,71.0741734 115.05431,74.8644325 115.05431,79.5366523 C115.05431,84.2114789 111.299119,87.9991311 106.664498,87.9991311 C102.032487,87.9991311 98.2746871,84.2114789 98.2746871,79.5357834 C98.2746871,74.8644325 102.032487,71.0741734 106.664498,71.0741734 Z M84.4986953,30 C52.7435422,30 27,55.9678797 27,87.9991311 C27,120.032989 52.7435422,146 84.4978254,146 C116.256458,146 142,120.032989 142,87.9991311 C142,55.9678797 116.256458,30 84.4986953,30 Z" id="Shape" fill="#FFFFFF"></path>
                <path d="M158.17726,52.7755056 C147.761882,21.196016 118.604907,0 85.5017388,0 C52.3950928,0 23.2407265,21.196016 12.823609,52.7755056 C5.73019706,52.8396493 0,58.6455182 0,65.8018716 L0,89.9684331 C0,97.1655263 5.79627126,103 12.9444552,103 L19.9717929,103 C23.1537866,103 25.7358964,100.403915 25.7358964,97.1975982 L25.7358964,58.5709729 C25.7358964,55.768588 23.7580178,53.4264771 21.1298299,52.8873236 C31.1244205,25.8802377 56.6412287,7.93127824 85.5017388,7.93127824 C114.358771,7.93127824 139.876449,25.8802377 149.871039,52.8873236 C147.241982,53.4264771 145.264973,55.768588 145.264973,58.5709729 L145.264973,97.1975982 C145.264973,100.404782 147.846213,103 151.031685,103 L158.056414,103 C165.203729,103 171,97.1655263 171,89.9693 L171,65.8018716 C171,58.6446514 165.269803,52.8387824 158.176391,52.7746387" id="Path" fill="#FFFFFF"></path>
                <path d="M171,65.8603337 L171,90.4940324 C171,97.8285917 165.227567,103.776606 158.085581,103.776606 L151.071176,103.776606 C148.224449,103.776606 145.848995,101.642916 145.393345,98.8468635 C145.707526,98.8980863 146.022576,98.9281133 146.352379,98.9281133 L153.367652,98.9281133 C160.50877,98.9281133 166.282071,92.9800991 166.282071,85.6428901 L166.282071,61.0118411 C166.282071,58.5875948 165.651972,56.3249649 164.534979,54.3696711 C168.404966,56.6481977 171,60.9473711 171,65.8603337 M141.241237,87.0576963 C141.241237,119.60795 115.555603,146 83.8614652,146 C66.8271029,146 51.5233424,138.371352 41,126.25012 C51.1293137,135.510829 64.499383,141.151507 79.1426682,141.151507 C110.836806,141.151507 136.52244,114.759457 136.52244,82.2092035 C136.52244,67.1620965 131.033812,53.4247008 122.020624,43 C133.817182,53.8124035 141.241237,69.5386527 141.241237,87.0576963" id="Shape" fill="#F2F2F2"></path>
            </g>
        </g>
    </g>
</svg>