<svg xmlns="http://www.w3.org/2000/svg" width="512" height="512" viewBox="0 0 67.469 67.469"><defs><linearGradient id="a" x1="-29.812" x2="67.456" y1="224.177" y2="126.909" gradientUnits="userSpaceOnUse"><stop offset="0" stop-color="#ff7911"/><stop offset=".565" stop-color="#fe7711"/><stop offset=".769" stop-color="#fb700f"/><stop offset=".913" stop-color="#f5650c"/><stop offset="1" stop-color="#f05909"/></linearGradient><linearGradient id="b" x1="-34.942" x2="64.89" y1="213.933" y2="130.164" gradientUnits="userSpaceOnUse"><stop offset=".5" stop-color="#ff8d15" stop-opacity="0"/><stop offset=".67" stop-color="#fe8a14" stop-opacity=".34"/><stop offset=".772" stop-color="#fa8212" stop-opacity=".543"/><stop offset=".855" stop-color="#f3740f" stop-opacity=".711"/><stop offset=".929" stop-color="#ea600a" stop-opacity=".858"/><stop offset=".996" stop-color="#de4603" stop-opacity=".992"/><stop offset="1" stop-color="#dd4403"/></linearGradient><linearGradient id="c" x1="177.774" x2="263.933" y1="212.229" y2="148.791" gradientUnits="userSpaceOnUse"><stop offset=".436" stop-color="#ff8f15"/><stop offset=".741" stop-color="#ff9916" stop-opacity=".46"/><stop offset="1" stop-color="#ffa618" stop-opacity="0"/></linearGradient></defs><path fill="#ffa618" d="M65.146 24.908c0-.132 0-.265-.026-.397 0-.106-.026-.212-.053-.317v-.053a2.48 2.48 0 0 0-.265-.741L33.793 47.16l2.222 1.72 23.204 17.78c2.408 1.852 5.9.132 5.9-2.91z"/><path fill="url(#a)" d="M2 88.9c-.4.9-.7 1.9-1 2.8v.3c-.1.4-.2.8-.2 1.2-.1.5-.1 1-.1 1.5v146.8c0 11.5 13.2 18 22.3 11l64.3-49.4 31.8-24.5z" transform="translate(2.254792 -.148437) scale(.264583)"/><path fill="url(#b)" d="M2 88.9c-.4.9-.7 1.9-1 2.8v.3c-.1.4-.2.8-.2 1.2-.1.5-.1 1-.1 1.5v146.8c0 11.5 13.2 18 22.3 11l56.2-43.2 39.9-30.7z" opacity=".5" transform="translate(2.254792 -.148437) scale(.264583)"/><path fill="url(#c)" d="M237.7 94.6c0-.5 0-1-.1-1.4 0-.4-.1-.8-.2-1.2v-.2c-.2-1-.5-1.9-1-2.8l-117.2 89.8 8.4 6.5 87.7 67.2c9.1 7 22.3.5 22.3-11V94.7c.1 0 .1-.1.1-.1z" transform="translate(2.254792 -.148437) scale(.264583)"/><path fill="#ff8f15" d="M64.802 23.373c-.132-.265-.265-.503-.45-.741v-.026c-.079-.106-.159-.185-.265-.291-.026-.026-.026-.026-.026-.053-.106-.106-.212-.212-.344-.291L36.016.804a3.69 3.69 0 0 0-4.471 0l-.106.079-27.57 21.114c-.106.079-.212.185-.317.291l-.053.053-.265.291s0 .026-.026.026c-.159.212-.291.45-.423.714l31.009 23.76z"/></svg>