<svg xmlns="http://www.w3.org/2000/svg" class="header__logo--icon nzz-icons--icon nzz-icons--fill" version="1.1" viewBox="0 0 64 23"><path _fill="#000" clip-rule="evenodd" d="M60.711 19.742c-.862.932-3.16 1.109-6.833 1.109-1.798 0-3.026-.042-4.049-.14l13.715-19.01-.39-.778H49.733c-1.207 0-1.207-.202-1.54-.811h-1.24c-.107 2.915-.427 6.522-.427 6.522l1.486.05s.305-1.307.86-2.438c.682-1.379 1.003-1.554 4.466-1.561h5.5l-13.9 19.121.428.805h17.347c.506-1.87 1.288-6.044 1.288-6.044l-1.478-.305s-.751 2.333-1.811 3.48zM40.197 19.742c-.858.932-3.158 1.109-6.83 1.109-1.798 0-3.028-.042-4.049-.14l13.714-19.01-.39-.778h-13.42c-1.21 0-1.21-.202-1.541-.811h-1.242c-.106 2.915-.425 6.522-.425 6.522l1.484.05s.305-1.307.862-2.438c.681-1.379 1.004-1.554 4.464-1.561h5.5L24.426 21.806l.43.805H42.2c.505-1.87 1.286-6.044 1.286-6.044l-1.478-.305s-.752 2.333-1.812 3.48zM15.026 2.412s.668.002 1.538.125c1.42.2 1.58 1.03 1.647 1.647.155 1.085.224 2.733.224 5.344v7.022L5.205.923H0V2.4s1.586.022 2.314.535c1.345.948 1.223 1.848 1.223 3.67v7.14c0 2.374-.063 4.178-.194 5.522-.072.722-.298 1.304-1.048 1.598-.628.245-1.807.26-1.807.26v1.486h8.284v-1.486s-1.345-.026-2.047-.286c-.809-.297-.996-.874-1.071-1.64-.13-1.25-.193-3.034-.193-5.454v-7.4l13.454 16.287h1.443V9.528c0-2.81.055-4.39.194-5.457.049-.535.261-1.1.826-1.346.724-.315 1.9-.316 1.9-.316V.924L15.026.923v1.49z" fill="#000000" fill-rule="evenodd" pid="0" stroke="none"></path></svg>